<?xml version="1.0" encoding="utf-8"?>
<!-- Generator: Adobe Illustrator 24.0.2, SVG Export Plug-In . SVG Version: 6.00 Build 0)  -->
<svg version="1.1" id="Capa_1" xmlns="http://www.w3.org/2000/svg" xmlns:xlink="http://www.w3.org/1999/xlink" x="0px" y="0px"
	 viewBox="0 0 1247.3 1247.4" style="enable-background:new 0 0 1247.3 1247.4;" xml:space="preserve">
<style type="text/css">
	.st0{stroke:#1D1D1B;stroke-width:3;stroke-miterlimit:10;}
	.st1{fill:none;}
	.st2{stroke:#1D1D1B;stroke-miterlimit:10;}
</style>
<title>vectorlogoRSS</title>
<path class="st0" d="M145.5,610.6h25.1l252.5,0.3c24.5,0,49,0.1,73.5-0.1c4,0,4.9,1,4.9,5.1c-0.2,16.5,0.2,33,0.3,49.5
	c0,1.6,0,3.3,0,6.1H177.5c12,96,47.6,180.6,111.4,251.5c83.9,93.2,189,145,315.8,152.7v-5.7V673.5c0-1.7-0.5-3.4-0.1-5
	c2-8-2.6-11.3-8.8-14.7c-15-8-29.6-16.6-44.3-25.1c-37.7-21.9-75.3-44-113-65.8c-36.3-21-72.8-41.8-109.2-62.7
	c-39.9-23-79.8-46.2-119.7-69.4L189.4,419c39.4-83.1,96.3-151.2,173.3-201.1c107.4-69.6,225.1-95.7,351.3-72.6
	c138.9,25.5,248,98.9,324.2,217.6c59.4,92.5,83.2,195.1,72.7,306.1H760.8c0-1.3,0-3.2,0-5.1c-0.1-16.3-0.2-32.7-0.3-49
	c0-2.7,0.2-4.3,3.7-4.3c56.8,0.2,113.6,0.2,170.5,0.2c47.3,0,94.7,0,142,0h6.5c-3.6-110.4-40.9-207-113.7-289.1
	C885.5,227,779.1,178,652.7,168.2v6.1c0.1,108,0.2,216,0.4,324c0,39.7,0.3,79.3,0.2,119c0,4.3,1.5,6.6,5.1,8.7
	c21.9,12.4,43.7,24.9,65.5,37.4c29.3,16.9,58.6,33.7,87.8,50.6c20.1,11.5,40.2,22.9,60.2,34.5c23.3,13.5,46.5,27.3,69.8,40.8
	c25.7,14.8,51.5,29.5,77.1,44.3c11.7,6.7,23.2,13.6,35.5,20.8c-4.6,8.2-8.8,16.3-13.6,24c-14.8,23.4-31.5,45.4-50.2,65.9
	c-11.8,13.1-23.9,26.1-37.1,37.7c-16.2,14.1-33.3,27.2-50.7,39.7c-48,34.5-101.7,56.2-158.6,70.9c-27.5,7.1-55.5,11-83.7,13.2
	c-1.8,0.1-3.5,1.3-5.3,1.9c-1.4,0.5-2.8,1.4-4.2,1.4c-13.3,0-26.6,0-39.9-0.3c-2.1-0.1-4.1-1.4-6.2-2c-1.4-0.4-2.8-0.7-4.2-0.9
	c-24.2-3.3-48.7-5.3-72.7-10.1c-28.1-5.6-55.3-14.7-82-25.3c-29.7-11.8-58.1-26.1-84.4-44.2c-19-13.1-36.7-28.1-54.4-43
	c-12.1-10.1-23.6-21-34.3-32.6c-19.6-21.4-36.9-44.7-52.5-69.2c-14.2-22.5-26.6-46.2-37.1-70.7c-18.3-42.2-30-87-34.7-132.8
	c-2.2-21.1-2.6-42.4-3.7-63.7C144.9,613,145.2,611.8,145.5,610.6z M242.1,385.1L603.9,594V169.3c-46.2,0.1-128.6,17.6-199.6,58.5
	C337.1,266.6,282.7,318.4,242.1,385.1L242.1,385.1z M997.1,889.7l0.1-2.8L654,686.9v389.2C796.9,1065.4,910.8,1002.9,997.1,889.7
	L997.1,889.7z"/>
<path class="st0" d="M187.9,353.6L159.7,402c-11.4-6.5-22.4-12.9-33.3-19.1c-19.3-11.1-38.6-22.3-58.1-33.2
	c-3.9-2.2-4.2-4.2-2.2-7.8c6.7-11.7,13-23.6,20-35.1c6.2-10.1,13.4-19.5,20-29.4c5.3-8,10-16.4,15.8-24
	c10.5-13.7,21.5-27.1,32.7-40.2c7.9-9.2,16.5-17.8,24.8-26.7c5.3-5.7,10.1-11.8,15.9-16.9c11.3-10.1,23-19.7,34.7-29.3
	c7.1-5.9,14.2-11.9,21.8-17.2c12.7-8.9,25.7-17.4,38.6-26c8.4-5.5,16.6-11.2,25.4-16.1c12.1-6.7,24.6-13,37.1-19
	c11.3-5.5,22.7-10.7,34.3-15.4c9.2-3.8,18.7-6.8,28-10c10.8-3.7,21.5-7.7,32.4-11c8.7-2.6,17.6-4.5,26.4-6.5
	c11.2-2.5,22.4-4.8,33.6-7.2c2.9-0.6,5.9-0.8,8.7-1.5c4-0.9,7.9-2.4,11.9-3c11.3-1.6,22.7-3.1,34-4.3c8.6-0.9,17.2-1.8,25.8-2
	c21.5-0.5,43-1.4,64.4-0.7C672.3,1,692.2,3,712,5.4c13.2,1.6,26.1,4.8,39.1,7.6c10,2.2,20,4.7,29.8,7.6c15.5,4.6,31.1,9.3,46.3,14.6
	c17.3,6.1,34.7,12.3,51.4,19.9c18.5,8.3,36.6,17.7,54.3,27.6c15.8,8.6,31.1,18.2,45.8,28.6c17.8,12.8,34.7,27,51.7,40.8
	c9.2,7.5,18.3,15.2,26.8,23.5c11.5,11.2,22.8,22.7,33.6,34.6c7.8,8.6,14.6,18.1,21.6,27.4c8,10.5,15.9,21.1,23.5,31.9
	c7.9,11.3,16.2,22.5,22.9,34.5c10.4,18.4,19.7,37.3,29.2,56.2c4.5,8.8,8.6,17.9,12.3,27c3.9,9.6,7.2,19.5,10.6,29.4
	c3.6,10.3,6.9,20.7,10.3,31.1c5.5,16.1,9.7,32.6,12.8,49.4c1.8,10.6,4.7,21.1,6.1,31.7c2.1,15.1,4.1,30.3,4.8,45.6
	c1.2,25.5,1.5,51.1,1.9,76.7c0.1,5.6-0.8,11.1-1.2,17h-84.4v-57h45.9c0-6.8,0.5-13.1-0.1-19.3c-1.7-18.5-3.2-37.1-6-55.5
	c-2.6-17.3-6.2-34.6-10.2-51.6c-3.2-13.5-7.3-26.7-11.5-39.9c-4.3-13.3-9-26.5-14.1-39.6c-4.3-11-9.2-21.8-14-32.6
	c-2.8-6.2-5.6-12.4-8.9-18.3c-6-10.7-12.3-21.4-18.8-31.8c-7.5-12-15.2-23.9-23.1-35.6c-6.2-9.1-12.8-18-19.5-26.8
	c-4.8-6.5-9.8-12.8-15.2-18.8c-7.3-8.1-14.8-16-22.4-23.7c-9.3-9.5-18.4-19.3-28.4-27.9c-14-12.1-28.5-23.5-43.2-34.7
	c-11-8.4-22.3-16.4-34.1-23.7c-16.1-10-32.7-19.2-49.1-28.6C869.8,91.4,849,83.8,828.4,76c-23.2-8.9-46.9-16.7-71.3-21.8
	c-16.4-3.4-33.1-5.6-49.6-8.3c-27.7-4.5-55.8-6.6-83.9-6.5c-24.5,0-48.9,1-73.1,4.5c-15.1,2.1-30,5.4-45,7.4
	c-21.3,2.9-41.6,9.6-62,16.1c-14.8,4.7-29.5,9.8-43.8,15.5c-9.9,4-19.2,9.3-28.8,14c-6.1,3-12.5,5.4-18.4,8.8
	c-16.1,9.2-32.1,18.3-47.9,28.1c-16.4,10.2-32.5,20.7-46.9,33.8c-13.8,12.5-28.1,24.4-41.8,37.1c-9.7,9-19,18.5-27.9,28.4
	c-12.5,13.9-24.9,28-34.9,44c-7.7,12.3-16.4,23.9-24.9,35.7c-2.8,3.9-1.7,5.7,2.2,7.9C149.5,331.4,168.4,342.3,187.9,353.6z"/>
<path class="st0" d="M1108,951.7l-52.7-30l28.9-49.8l87.2,49.3c-5.6,10.3-10.8,20-16.3,29.5c-3.3,5.8-6.8,11.6-10.5,17.2
	c-2.9,4.4-6,8.7-9.2,12.9c-14,17.6-27.8,35.3-42.1,52.6c-9.6,11.6-19.3,23.1-30,33.6c-13.7,13.4-28.1,26.1-42.7,38.6
	c-8.8,7.4-18,14.4-27.6,20.8c-16.1,11.2-32.1,22.7-48.9,32.7c-17,10.2-34.8,18.9-52.5,27.9c-10.6,5.3-21.4,10.3-32.5,14.6
	c-11.7,4.6-23.7,8.3-35.6,12.4c-7.2,2.4-14.3,5.1-21.5,7.1c-9.5,2.7-19.2,4.9-28.8,7.4c-4.7,1.2-9.3,2.6-14,3.4
	c-21.4,4-42.8,8.6-64.3,11.6c-17.5,2.4-35.1,3.7-52.7,3.9c-22.4,0.2-44.8-0.9-67.3-1.9c-11.1-0.4-22.2-1.4-33.2-3
	c-17.8-2.8-35.5-6.6-53.2-10c-2.9-0.6-5.9-1.1-8.8-1.9c-16.4-4.5-33-8.6-49.1-13.9c-15.9-5.3-31.4-12-47.1-18.2
	c-10.6-4.2-21.4-8-31.7-13c-12.8-6.2-25.3-12.8-37.5-20.2c-20.5-12.4-40.8-25-60.6-38.4c-10.5-7.1-20-15.5-29.5-23.9
	c-12.7-11.2-25.1-22.8-37.4-34.6c-10.8-10.3-21.5-20.5-31.5-31.4c-6.4-6.9-11.4-15-17.3-22.4c-5.5-7-11.8-13.4-16.7-20.8
	c-12.6-18.8-24.3-38.4-37.2-57c-9.7-14-16.3-29.5-23.7-44.5C52.2,874.9,44.6,857,38,838.7c-6-16.1-10.5-32.7-15.3-49.1
	c-3-10.3-6.1-20.7-7.9-31.3C10.3,732.4,4.3,706.7,3,680.2c-0.6-12.4-1.7-24.8-2.3-37.3C0.2,633.3,0.2,623.7,0,614
	c-0.1-2.6,0.5-4.1,3.6-4c34.1,0.4,68.3,0.8,102.4,1.1c0.6,0.1,1.1,0.3,1.6,0.5v60.8H41.2c3.8,60.6,18,120,41.9,175.7
	c61.4,142.3,162,247.5,304.1,310.5c125.2,55.5,255.5,65.2,387.5,30C914.3,1151.5,1025.3,1071.8,1108,951.7z"/>
<rect x="193" y="1297.3" class="st1" width="872.2" height="156.3"/>
<text transform="matrix(1 0 0 1 192.9525 1352.8529)" style="font-family:'LucidaConsole'; font-size:72px;">RODRIGO SENDINO SANZ</text>
<text transform="matrix(1 0 0 1 192.9525 1352.8529)" style="fill:none;stroke:#1D1D1B;stroke-miterlimit:10; font-family:'LucidaConsole'; font-size:72px;">RODRIGO SENDINO SANZ</text>
<g>
	<g>
		<path class="st2" d="M436.9,1378.1h4.5l2.3,19.8c0.3,2.6,0.5,4.2,0.6,7.3h0.1c0.6-3.1,0.9-4.7,1.5-7.2l3.1-11.7h3.8l3,11.7
			c0.7,2.6,1,4.1,1.5,7.2h0.2c0.2-3.1,0.3-4.7,0.6-7.2l2.2-19.8h4.3l-4.6,31.5h-5l-3.1-12.7c-0.5-1.9-0.9-3.7-1.2-5.7h-0.1
			c-0.3,1.9-0.6,3.7-1.1,5.7l-3.1,12.7h-4.9L436.9,1378.1z"/>
		<path class="st2" d="M470.7,1378.2h19.5v3.4h-15.5v9.8h13.1v3.4h-13.1v11.4h15.9v3.4h-20v-31.4H470.7z"/>
		<path class="st2" d="M498.8,1378.2h8.9c6.4,0,10.8,2.2,10.8,7.7c0,3.1-1.8,5.9-5.5,6.9v0.2c4.6,0.7,7.3,3.2,7.3,7.5
			c0,6.2-4.8,9.2-11.9,9.2h-9.6V1378.2z M507.1,1391.4c5.4,0,7.5-1.7,7.5-5.2c0-3.4-2.5-4.7-7.3-4.7h-4.5v9.9L507.1,1391.4
			L507.1,1391.4z M507.9,1406.3c5.4,0,8.5-1.8,8.5-6c0-3.9-3-5.5-8.5-5.5h-5.1v11.5H507.9z"/>
		<path class="st2" d="M555.8,1378.2h7.8c9.5,0,14.6,5.6,14.6,15.6s-5.1,15.9-14.4,15.9h-8L555.8,1378.2L555.8,1378.2z
			 M563.3,1406.4c7.2,0,10.7-4.6,10.7-12.6c0-7.9-3.6-12.3-10.7-12.3h-3.5v24.9H563.3z"/>
		<path class="st2" d="M585.9,1378.2h19.5v3.4H590v9.8h13v3.4h-13v11.4h15.9v3.4h-20V1378.2z"/>
		<path class="st2" d="M611.3,1378.2h4.3l5,17c1.1,3.7,1.9,6.7,3,10.4h0.2c1.2-3.6,2-6.7,3-10.4l5-17h4.1l-10,31.5h-4.7
			L611.3,1378.2z"/>
		<path class="st2" d="M643.5,1378.2H663v3.4h-15.5v9.8h13.1v3.4h-13.1v11.4h15.9v3.4h-20L643.5,1378.2L643.5,1378.2z"/>
		<path class="st2" d="M673.3,1378.2h4v28.1h15.6v3.4h-19.5L673.3,1378.2L673.3,1378.2z"/>
		<path class="st2" d="M698,1393.8c0-10.2,5-16.2,12.1-16.2s12.1,6,12.1,16.2c0,10.3-5,16.5-12.1,16.5S698,1404.1,698,1393.8z
			 M718,1393.8c0-7.9-3.2-12.6-7.9-12.6c-4.8,0-7.9,4.7-7.9,12.6c0,8.1,3.2,12.9,7.9,12.9C714.8,1406.7,718,1401.9,718,1393.8z"/>
		<path class="st2" d="M729.3,1378.2h9.5c7,0,11.7,2.4,11.7,9.3c0,6.7-4.8,9.7-11.7,9.7h-5.5v12.5h-4V1378.2z M738.4,1393.9
			c5.5,0,8.1-2,8.1-6.5s-2.7-6-8.1-6h-5v12.5H738.4z"/>
		<path class="st2" d="M758.7,1378.2h19.5v3.4h-15.5v9.8h13.1v3.4h-13.1v11.4h15.9v3.4h-20L758.7,1378.2L758.7,1378.2z"/>
		<path class="st2" d="M786.8,1378.2h9.8c6.4,0,11,2.3,11,8.9c0,6.3-4.7,9.3-11,9.3h-5.8v13.3h-4.1L786.8,1378.2L786.8,1378.2z
			 M796.1,1393.1c4.9,0,7.6-2,7.6-6c0-4.1-2.7-5.6-7.6-5.6h-5.2v11.7L796.1,1393.1L796.1,1393.1z M799,1393.2l9.6,16.5H804
			l-8.2-14.4L799,1393.2z"/>
	</g>
</g>
</svg>
